<mxfile host="app.diagrams.net" modified="2020-07-19T07:06:22.064Z" agent="5.0 (Macintosh; Intel Mac OS X 10_15_5) AppleWebKit/537.36 (KHTML, like Gecko) Chrome/83.0.4103.97 Safari/537.36" etag="YU29sCHO8ukiq4Fhm-jg" version="13.1.2" type="github" pages="2">
  <diagram id="4Sdg7nNps6h83k-6R1Lx" name="操作说明">
    <mxGraphModel dx="946" dy="614" grid="1" gridSize="10" guides="1" tooltips="1" connect="1" arrows="1" fold="1" page="1" pageScale="1" pageWidth="827" pageHeight="1169" math="0" shadow="0">
      <root>
        <mxCell id="0" />
        <mxCell id="1" parent="0" />
        <mxCell id="R1ClrPyvokO1kEaZyk7J-7" value="" style="edgeStyle=orthogonalEdgeStyle;rounded=0;orthogonalLoop=1;jettySize=auto;html=1;" parent="1" source="R1ClrPyvokO1kEaZyk7J-5" target="R1ClrPyvokO1kEaZyk7J-6" edge="1">
          <mxGeometry relative="1" as="geometry" />
        </mxCell>
        <mxCell id="R1ClrPyvokO1kEaZyk7J-5" value="1 申请成为&lt;br&gt;保荐人" style="rounded=1;whiteSpace=wrap;html=1;fontSize=16;fillColor=#dae8fc;strokeColor=#6c8ebf;" parent="1" vertex="1">
          <mxGeometry x="90" y="105" width="110" height="60" as="geometry" />
        </mxCell>
        <mxCell id="t0psUoiyrEDvLUBSZPUH-5" value="" style="edgeStyle=orthogonalEdgeStyle;rounded=0;orthogonalLoop=1;jettySize=auto;html=1;fontSize=14;" parent="1" source="R1ClrPyvokO1kEaZyk7J-6" target="t0psUoiyrEDvLUBSZPUH-4" edge="1">
          <mxGeometry relative="1" as="geometry" />
        </mxCell>
        <mxCell id="t0psUoiyrEDvLUBSZPUH-67" value="" style="rounded=0;orthogonalLoop=1;jettySize=auto;html=1;fontSize=14;entryX=0.5;entryY=0;entryDx=0;entryDy=0;" parent="1" source="R1ClrPyvokO1kEaZyk7J-6" target="t0psUoiyrEDvLUBSZPUH-30" edge="1">
          <mxGeometry relative="1" as="geometry" />
        </mxCell>
        <mxCell id="R1ClrPyvokO1kEaZyk7J-6" value="2 登录今日优脉小程序" style="rounded=1;whiteSpace=wrap;html=1;fontSize=16;fillColor=#dae8fc;strokeColor=#6c8ebf;" parent="1" vertex="1">
          <mxGeometry x="330" y="100" width="110" height="65" as="geometry" />
        </mxCell>
        <mxCell id="t0psUoiyrEDvLUBSZPUH-34" value="" style="edgeStyle=orthogonalEdgeStyle;rounded=0;orthogonalLoop=1;jettySize=auto;html=1;fontSize=14;entryX=1;entryY=0.5;entryDx=0;entryDy=0;exitX=1;exitY=0.5;exitDx=0;exitDy=0;" parent="1" source="t0psUoiyrEDvLUBSZPUH-4" target="t0psUoiyrEDvLUBSZPUH-33" edge="1">
          <mxGeometry relative="1" as="geometry">
            <Array as="points">
              <mxPoint x="820" y="133" />
              <mxPoint x="820" y="320" />
            </Array>
          </mxGeometry>
        </mxCell>
        <mxCell id="t0psUoiyrEDvLUBSZPUH-4" value="3.2 上传人脉" style="rounded=1;whiteSpace=wrap;html=1;fontSize=16;fillColor=#dae8fc;strokeColor=#6c8ebf;" parent="1" vertex="1">
          <mxGeometry x="510" y="100" width="110" height="65" as="geometry" />
        </mxCell>
        <mxCell id="t0psUoiyrEDvLUBSZPUH-36" value="" style="edgeStyle=none;rounded=0;orthogonalLoop=1;jettySize=auto;html=1;fontSize=14;" parent="1" source="t0psUoiyrEDvLUBSZPUH-30" target="t0psUoiyrEDvLUBSZPUH-35" edge="1">
          <mxGeometry relative="1" as="geometry" />
        </mxCell>
        <mxCell id="t0psUoiyrEDvLUBSZPUH-30" value="5 查看岗位" style="rounded=1;whiteSpace=wrap;html=1;fontSize=16;fillColor=#dae8fc;strokeColor=#6c8ebf;" parent="1" vertex="1">
          <mxGeometry x="510" y="215" width="110" height="65" as="geometry" />
        </mxCell>
        <mxCell id="t0psUoiyrEDvLUBSZPUH-52" value="" style="edgeStyle=orthogonalEdgeStyle;rounded=0;orthogonalLoop=1;jettySize=auto;html=1;fontSize=14;entryX=0.5;entryY=0;entryDx=0;entryDy=0;" parent="1" source="t0psUoiyrEDvLUBSZPUH-35" target="t0psUoiyrEDvLUBSZPUH-8" edge="1">
          <mxGeometry relative="1" as="geometry">
            <mxPoint x="250" y="247.5" as="targetPoint" />
          </mxGeometry>
        </mxCell>
        <mxCell id="t0psUoiyrEDvLUBSZPUH-35" value="6 推荐人脉" style="rounded=1;whiteSpace=wrap;html=1;fontSize=16;fillColor=#dae8fc;strokeColor=#6c8ebf;" parent="1" vertex="1">
          <mxGeometry x="330" y="215" width="110" height="65" as="geometry" />
        </mxCell>
        <mxCell id="t0psUoiyrEDvLUBSZPUH-9" value="7 收取佣金" style="rounded=1;whiteSpace=wrap;html=1;fontSize=16;fillColor=#dae8fc;strokeColor=#6c8ebf;" parent="1" vertex="1">
          <mxGeometry x="90" y="361.25" width="110" height="65" as="geometry" />
        </mxCell>
        <mxCell id="t0psUoiyrEDvLUBSZPUH-2" value="登记信息" style="text;html=1;align=center;verticalAlign=middle;resizable=0;points=[];autosize=1;fontSize=14;" parent="1" vertex="1">
          <mxGeometry x="230" y="112.5" width="70" height="20" as="geometry" />
        </mxCell>
        <mxCell id="t0psUoiyrEDvLUBSZPUH-3" value="分配邀请码" style="text;html=1;align=center;verticalAlign=middle;resizable=0;points=[];autosize=1;fontSize=14;" parent="1" vertex="1">
          <mxGeometry x="220" y="132.5" width="90" height="20" as="geometry" />
        </mxCell>
        <mxCell id="t0psUoiyrEDvLUBSZPUH-53" value="" style="edgeStyle=orthogonalEdgeStyle;rounded=0;orthogonalLoop=1;jettySize=auto;html=1;fontSize=14;" parent="1" source="t0psUoiyrEDvLUBSZPUH-8" target="t0psUoiyrEDvLUBSZPUH-9" edge="1">
          <mxGeometry relative="1" as="geometry" />
        </mxCell>
        <mxCell id="t0psUoiyrEDvLUBSZPUH-54" value="入职录取" style="edgeLabel;html=1;align=center;verticalAlign=middle;resizable=0;points=[];fontSize=14;" parent="t0psUoiyrEDvLUBSZPUH-53" vertex="1" connectable="0">
          <mxGeometry x="0.1652" relative="1" as="geometry">
            <mxPoint as="offset" />
          </mxGeometry>
        </mxCell>
        <mxCell id="t0psUoiyrEDvLUBSZPUH-8" value="今日优脉&lt;br&gt;智能服务中心" style="ellipse;whiteSpace=wrap;html=1;aspect=fixed;fontSize=18;fillColor=#ffe6cc;strokeColor=#d79b00;" parent="1" vertex="1">
          <mxGeometry x="326.25" y="336" width="117.5" height="117.5" as="geometry" />
        </mxCell>
        <mxCell id="t0psUoiyrEDvLUBSZPUH-37" value="授权" style="rounded=0;orthogonalLoop=1;jettySize=auto;html=1;fontSize=14;exitX=0.5;exitY=1;exitDx=0;exitDy=0;entryX=1;entryY=0.5;entryDx=0;entryDy=0;edgeStyle=orthogonalEdgeStyle;" parent="1" source="t0psUoiyrEDvLUBSZPUH-33" target="t0psUoiyrEDvLUBSZPUH-8" edge="1">
          <mxGeometry relative="1" as="geometry">
            <mxPoint x="470" y="384" as="targetPoint" />
          </mxGeometry>
        </mxCell>
        <mxCell id="t0psUoiyrEDvLUBSZPUH-41" value="不授权" style="edgeStyle=orthogonalEdgeStyle;rounded=0;orthogonalLoop=1;jettySize=auto;html=1;fontSize=14;exitX=0.5;exitY=0;exitDx=0;exitDy=0;entryX=1;entryY=0.5;entryDx=0;entryDy=0;" parent="1" source="t0psUoiyrEDvLUBSZPUH-33" target="t0psUoiyrEDvLUBSZPUH-30" edge="1">
          <mxGeometry relative="1" as="geometry">
            <mxPoint x="410" y="238" as="targetPoint" />
            <Array as="points">
              <mxPoint x="725" y="248" />
              <mxPoint x="665" y="248" />
            </Array>
          </mxGeometry>
        </mxCell>
        <mxCell id="t0psUoiyrEDvLUBSZPUH-33" value="&lt;span&gt;4 授权&lt;/span&gt;人脉&lt;span&gt;&lt;br&gt;给优脉平台&lt;/span&gt;" style="rhombus;whiteSpace=wrap;html=1;fontSize=14;fillColor=#dae8fc;strokeColor=#6c8ebf;" parent="1" vertex="1">
          <mxGeometry x="670" y="265" width="110" height="110" as="geometry" />
        </mxCell>
        <mxCell id="t0psUoiyrEDvLUBSZPUH-57" value="精准匹配" style="text;html=1;strokeColor=none;fillColor=none;align=center;verticalAlign=middle;whiteSpace=wrap;rounded=0;fontSize=14;rotation=45;fontStyle=0" parent="1" vertex="1">
          <mxGeometry x="290" y="435" width="80" height="20" as="geometry" />
        </mxCell>
        <mxCell id="t0psUoiyrEDvLUBSZPUH-58" value="智能推荐" style="text;html=1;strokeColor=none;fillColor=none;align=center;verticalAlign=middle;whiteSpace=wrap;rounded=0;fontSize=14;rotation=-45;fontStyle=0" parent="1" vertex="1">
          <mxGeometry x="400" y="435" width="80" height="20" as="geometry" />
        </mxCell>
        <mxCell id="t0psUoiyrEDvLUBSZPUH-59" value="面试辅导" style="text;html=1;strokeColor=none;fillColor=none;align=center;verticalAlign=middle;whiteSpace=wrap;rounded=0;fontSize=14;rotation=-50;fontStyle=0" parent="1" vertex="1">
          <mxGeometry x="290" y="336" width="80" height="20" as="geometry" />
        </mxCell>
        <mxCell id="t0psUoiyrEDvLUBSZPUH-60" value="入职跟进" style="text;html=1;strokeColor=none;fillColor=none;align=center;verticalAlign=middle;whiteSpace=wrap;rounded=0;fontSize=14;rotation=45;fontStyle=0" parent="1" vertex="1">
          <mxGeometry x="400" y="335" width="80" height="20" as="geometry" />
        </mxCell>
      </root>
    </mxGraphModel>
  </diagram>
  <diagram id="nDQprJlmJIzdMBohb6OF" name="保荐人-候选人-保荐人">
    <mxGraphModel dx="946" dy="614" grid="1" gridSize="10" guides="1" tooltips="1" connect="1" arrows="1" fold="1" page="1" pageScale="1" pageWidth="827" pageHeight="1169" math="0" shadow="0">
      <root>
        <mxCell id="KePHFbvGofasehSIs99T-0" />
        <mxCell id="KePHFbvGofasehSIs99T-1" parent="KePHFbvGofasehSIs99T-0" />
      </root>
    </mxGraphModel>
  </diagram>
</mxfile>
